<svg width="279" height="279" viewBox="0 0 279 279" fill="none" xmlns="http://www.w3.org/2000/svg">
<path d="M138.522 181.246L135.255 184.507L135.981 179.948L139.461 158.095L119.753 148.031L115.642 145.932L120.202 145.214L142.061 141.771L145.542 119.917L146.268 115.358L148.36 119.474L158.389 139.199L180.249 135.756L184.809 135.038L181.542 138.3L165.881 153.934L175.91 173.659L178.003 177.774L173.891 175.675L154.183 165.612L138.522 181.246Z" fill="#B40001" stroke="#B5976D" stroke-width="3"/>
<path fill-rule="evenodd" clip-rule="evenodd" d="M279 0.000152588V30.7173V247.717V278.717H248H31H0.282862L31.2829 247.717H248V31.0002L279 0.000152588ZM0.282715 278.717H0V278.435L0.282715 278.717Z" fill="#B40001"/>
<path fill-rule="evenodd" clip-rule="evenodd" d="M82.1791 196.769H197V81.9479L228 50.9479V81.7688V196.769V227.769H197H82H51V227.59L51.1792 227.769L82.1791 196.769Z" fill="#B40001"/>
</svg>
