<svg width="279" height="279" viewBox="0 0 279 279" fill="none" xmlns="http://www.w3.org/2000/svg">
<path d="M140.478 181.246L143.745 184.507L143.019 179.948L139.539 158.095L159.247 148.031L163.358 145.932L158.798 145.214L136.939 141.771L133.458 119.917L132.732 115.358L130.64 119.474L120.611 139.199L98.7511 135.756L94.1908 135.038L97.458 138.3L113.119 153.934L103.09 173.659L100.997 177.774L105.109 175.675L124.817 165.612L140.478 181.246Z" fill="#B40001" stroke="#B5976D" stroke-width="3"/>
<path fill-rule="evenodd" clip-rule="evenodd" d="M0 0.000152588V30.7173V247.717V278.717H31H248H278.717L247.717 247.717H31V31.0002L0 0.000152588ZM278.717 278.717H279V278.435L278.717 278.717Z" fill="#B40001"/>
<path fill-rule="evenodd" clip-rule="evenodd" d="M196.821 196.769H81.9998V81.9479L50.9998 50.9479V81.7688V196.769V227.769H81.9998H197H228V227.59L227.821 227.769L196.821 196.769Z" fill="#B40001"/>
</svg>
