<svg width="279" height="279" viewBox="0 0 279 279" fill="none" xmlns="http://www.w3.org/2000/svg">
<path d="M140.478 97.4717L143.745 94.2101L143.019 98.7692L139.539 120.623L159.247 130.686L163.358 132.785L158.798 133.504L136.939 136.946L133.458 158.8L132.732 163.359L130.64 159.244L120.611 139.518L98.7511 142.961L94.1908 143.679L97.458 140.418L113.119 124.784L103.09 105.058L100.997 100.943L105.109 103.042L124.817 113.106L140.478 97.4717Z" fill="#B40001" stroke="#B5976D" stroke-width="3"/>
<path fill-rule="evenodd" clip-rule="evenodd" d="M0 278.717V248V31V0H31H248H278.717L247.717 31H31V247.717L0 278.717ZM278.717 0H279V0.282715L278.717 0Z" fill="#B40001"/>
<path fill-rule="evenodd" clip-rule="evenodd" d="M196.821 81.9482H81.9998V196.769L50.9998 227.769V196.948V81.9482V50.9482H81.9998H197H228V51.1275L227.821 50.9483L196.821 81.9482Z" fill="#B40001"/>
</svg>
