<svg width="279" height="279" viewBox="0 0 279 279" fill="none" xmlns="http://www.w3.org/2000/svg">
<path d="M138.522 97.4717L135.255 94.2101L135.981 98.7692L139.461 120.623L119.753 130.686L115.642 132.785L120.202 133.504L142.061 136.946L145.542 158.8L146.268 163.359L148.36 159.244L158.389 139.518L180.249 142.961L184.809 143.679L181.542 140.418L165.881 124.784L175.91 105.058L178.003 100.943L173.891 103.042L154.183 113.106L138.522 97.4717Z" fill="#B40001" stroke="#B5976D" stroke-width="3"/>
<path fill-rule="evenodd" clip-rule="evenodd" d="M279 278.717V248V31V0H248H31H0.282862L31.2829 31H248V247.717L279 278.717ZM0.282715 0H0V0.282715L0.282715 0Z" fill="#B40001"/>
<path fill-rule="evenodd" clip-rule="evenodd" d="M82.1791 81.9482H197V196.769L228 227.769V196.948V81.9482V50.9482H197H82H51V51.1275L51.1792 50.9483L82.1791 81.9482Z" fill="#B40001"/>
</svg>
